<?xml version="1.0" encoding="UTF-8" standalone="no"?>
<svg
   xmlns:dc="http://purl.org/dc/elements/1.1/"
   xmlns:cc="http://creativecommons.org/ns#"
   xmlns:rdf="http://www.w3.org/1999/02/22-rdf-syntax-ns#"
   xmlns:svg="http://www.w3.org/2000/svg"
   xmlns="http://www.w3.org/2000/svg"
   xmlns:xlink="http://www.w3.org/1999/xlink"
   xmlns:sodipodi="http://sodipodi.sourceforge.net/DTD/sodipodi-0.dtd"
   xmlns:inkscape="http://www.inkscape.org/namespaces/inkscape"
   width="128"
   height="128"
   viewBox="0 0 33.866666 33.866668"
   version="1.1"
   id="svg8"
   inkscape:version="1.0.1 (3bc2e813f5, 2020-09-07)"
   sodipodi:docname="128x128.svg">
  <defs
     id="defs2" />
  <sodipodi:namedview
     id="base"
     pagecolor="#ffffff"
     bordercolor="#666666"
     borderopacity="1.0"
     inkscape:pageopacity="0.0"
     inkscape:pageshadow="2"
     inkscape:zoom="1.4"
     inkscape:cx="26.325761"
     inkscape:cy="119.03064"
     inkscape:document-units="px"
     inkscape:current-layer="layer1"
     inkscape:document-rotation="0"
     showgrid="false"
     showborder="true"
     inkscape:window-width="1920"
     inkscape:window-height="1051"
     inkscape:window-x="-9"
     inkscape:window-y="-9"
     inkscape:window-maximized="1"
     units="px"
     fit-margin-top="0"
     fit-margin-left="0"
     fit-margin-right="0"
     fit-margin-bottom="0" />
  <metadata
     id="metadata5">
    <rdf:RDF>
      <cc:Work
         rdf:about="">
        <dc:format>image/svg+xml</dc:format>
        <dc:type
           rdf:resource="http://purl.org/dc/dcmitype/StillImage" />
        <dc:title></dc:title>
      </cc:Work>
    </rdf:RDF>
  </metadata>
  <g
     inkscape:label="Layer 1"
     inkscape:groupmode="layer"
     id="layer1"
     transform="translate(-72.578283,-114.29362)">
    <g
       id="g873"
       transform="matrix(0.52629485,0,0,0.52916663,42.23832,61.513726)">
      <g
         aria-label="C"
         transform="matrix(1.0365368,0,0,0.96475108,18.143068,2.6459269)"
         id="text835"
         style="font-size:87.9359px;line-height:1.25;font-family:'Century Gothic';-inkscape-font-specification:'Century Gothic, Normal';fill:#225992;fill-opacity:1;stroke-width:2.1984">
        <path
           d="m 99.856695,113.95377 c 0,0 1.237865,1.43115 -1.03176,3.86965 -2.612864,1.62079 -3.948985,-0.0482 -3.948985,-0.0482 -2.747997,-3.57813 -6.05418,-6.28319 -9.918551,-8.11518 -3.835745,-1.86063 -8.057928,-2.79094 -12.666547,-2.79094 -5.037995,0 -9.703864,1.21656 -13.997609,3.64969 -4.293745,2.40449 -7.628554,5.65343 -10.004426,9.7468 -2.347247,4.06475 -3.520871,8.64474 -3.520871,13.73998 0,7.70012 2.633497,14.12643 7.900491,19.27892 5.295619,5.15249 11.965236,7.72874 20.008852,7.72874 8.845115,0 16.244668,-3.46362 22.198661,-10.39087 0,0 0.789468,-1.45297 3.493169,0.22416 2.517641,1.56172 1.487576,3.55434 1.487576,3.55434 -3.148747,4.00749 -7.08468,7.1133 -11.807799,9.31743 -4.694495,2.17549 -9.947176,3.26324 -15.758044,3.26324 -11.049237,0 -19.76554,-3.67831 -26.148908,-11.03492 -5.352869,-6.21162 -8.029303,-13.71136 -8.029303,-22.49923 0,-9.24586 3.234621,-17.01754 9.703864,-23.31503 6.497867,-6.32612 14.627358,-9.48918 24.388472,-9.48918 5.896743,0 11.220986,1.17362 15.972731,3.52087 4.751745,2.31863 8.64474,5.58187 11.678987,9.78974 z"
           style="fill:#225992;fill-opacity:1;stroke-width:2.1984"
           id="path837"
           sodipodi:nodetypes="ccccsccscsccccscscsccc" />
      </g>
      <g
         aria-label="C"
         transform="matrix(0.67688712,0,0,0.63000906,43.01376,47.43845)"
         id="g846"
         style="font-size:87.9359px;line-height:1.25;font-family:'Century Gothic';-inkscape-font-specification:'Century Gothic, Normal';fill:#225992;fill-opacity:1;stroke-width:2.1984">
        <path
           style="fill:#225992;fill-opacity:1;stroke-width:2.1984"
           sodipodi:type="inkscape:offset"
           inkscape:radius="0.92026818"
           inkscape:original="M 72.205078 100.64258 C 62.443964 100.64258 54.314273 103.80669 47.816406 110.13281 C 41.347163 116.4303 38.113281 124.20141 38.113281 133.44727 C 38.113281 142.23514 40.789709 149.73565 46.142578 155.94727 C 52.525946 163.30388 61.241779 166.98242 72.291016 166.98242 C 78.101884 166.98242 83.354333 165.89424 88.048828 163.71875 C 92.771947 161.51462 96.708675 158.40788 99.857422 154.40039 C 99.857422 154.40039 100.88678 152.40742 98.369141 150.8457 C 95.66544 149.16857 94.875 150.62305 94.875 150.62305 C 88.921007 157.5503 81.522849 161.01367 72.677734 161.01367 C 64.634118 161.01367 57.963588 158.43765 52.667969 153.28516 C 47.400975 148.13267 44.767578 141.70598 44.767578 134.00586 C 44.767578 128.91062 45.941815 124.33038 48.289062 120.26562 C 50.664935 116.17225 53.999224 112.92402 58.292969 110.51953 C 62.586714 108.0864 67.253021 106.86914 72.291016 106.86914 C 76.899635 106.86914 81.121286 107.79953 84.957031 109.66016 C 88.821402 111.49215 92.127003 114.19726 94.875 117.77539 C 94.875 117.77539 96.211355 119.44501 98.824219 117.82422 C 101.09384 115.38572 99.857422 113.95312 99.857422 113.95312 C 96.823175 109.74525 92.929479 106.48269 88.177734 104.16406 C 83.425989 101.81681 78.101821 100.64258 72.205078 100.64258 z "
           xlink:href="#path844"
           id="path863"
           inkscape:href="#path844"
           d="m 72.205078,99.722656 c -9.959987,0 -18.368384,3.263244 -25.03125,9.750004 -6.630549,6.45451 -9.980469,14.51416 -9.980469,23.97461 0,8.97472 2.758961,16.72734 8.251953,23.10156 a 0.9203602,0.9203602 0 0 0 0.002,0.002 c 6.555605,7.55511 15.590261,11.35156 26.84375,11.35156 5.925758,0 11.318663,-1.11128 16.144531,-3.34765 a 0.9203602,0.9203602 0 0 0 0.002,-0.002 c 4.845836,-2.26139 8.906361,-5.46516 12.14258,-9.58398 a 0.9203602,0.9203602 0 0 0 0.0957,-0.14648 c 0,0 0.37782,-0.73455 0.29883,-1.68946 -0.079,-0.9549 -0.66552,-2.16545 -2.121094,-3.06836 -1.487256,-0.92256 -2.652444,-1.08742 -3.5,-0.84375 -0.847557,0.24368 -1.28711,0.96289 -1.28711,0.96289 l 0.111328,-0.16015 c -5.807197,6.75646 -12.89511,10.07031 -21.5,10.07031 -7.847134,0 -14.238528,-2.47871 -19.367187,-7.46875 -5.102423,-4.99203 -7.623047,-11.12938 -7.623047,-18.61914 0,-4.95321 1.135023,-9.35712 3.398438,-13.27734 v -0.002 c 2.29427,-3.9522 5.494071,-7.07348 9.65625,-9.40429 a 0.9203602,0.9203602 0 0 0 0.0039,-0.002 c 4.159469,-2.35704 8.655161,-3.53125 13.544922,-3.53125 4.484763,0 8.558104,0.90174 12.263672,2.69922 a 0.9203602,0.9203602 0 0 0 0.0078,0.004 c 3.731073,1.76879 6.914708,4.37066 9.582031,7.84375 a 0.9203602,0.9203602 0 0 0 0.01172,0.0137 c 0,0 0.522375,0.63861 1.429688,0.93359 0.907312,0.29499 2.236215,0.24433 3.722656,-0.67773 a 0.9203602,0.9203602 0 0 0 0.189453,-0.1543 c 1.252823,-1.34604 1.649133,-2.57601 1.613283,-3.51172 -0.0357,-0.93227 -0.55089,-1.57727 -0.55469,-1.58203 -3.113705,-4.29765 -7.115689,-7.6478 -11.970702,-10.01758 -4.887211,-2.41416 -10.361947,-3.617184 -16.38086,-3.617184 z" />
        <path
           d="m 99.856695,113.95377 c 0,0 1.237865,1.43115 -1.03176,3.86965 -2.612864,1.62079 -3.948985,-0.0482 -3.948985,-0.0482 -2.747997,-3.57813 -6.05418,-6.28319 -9.918551,-8.11518 -3.835745,-1.86063 -8.057928,-2.79094 -12.666547,-2.79094 -5.037995,0 -9.703864,1.21656 -13.997609,3.64969 -4.293745,2.40449 -7.628554,5.65343 -10.004426,9.7468 -2.347247,4.06475 -3.520871,8.64474 -3.520871,13.73998 0,7.70012 2.633497,14.12643 7.900491,19.27892 5.295619,5.15249 11.965236,7.72874 20.008852,7.72874 8.845115,0 16.244668,-3.46362 22.198661,-10.39087 0,0 0.789468,-1.45297 3.493169,0.22416 2.517641,1.56172 1.487576,3.55434 1.487576,3.55434 -3.148747,4.00749 -7.08468,7.1133 -11.807799,9.31743 -4.694495,2.17549 -9.947176,3.26324 -15.758044,3.26324 -11.049237,0 -19.76554,-3.67831 -26.148908,-11.03492 -5.352869,-6.21162 -8.029303,-13.71136 -8.029303,-22.49923 0,-9.24586 3.234621,-17.01754 9.703864,-23.31503 6.497867,-6.32612 14.627358,-9.48918 24.388472,-9.48918 5.896743,0 11.220986,1.17362 15.972731,3.52087 4.751745,2.31863 8.64474,5.58187 11.678987,9.78974 z"
           style="fill:#225992;fill-opacity:1;stroke-width:2.1984"
           id="path844"
           sodipodi:nodetypes="ccccsccscsccccscscsccc" />
      </g>
      <g
         aria-label="C"
         transform="matrix(0.34875249,0,0,0.32459951,65.703618,88.30546)"
         id="g854"
         style="font-size:87.9359px;line-height:1.25;font-family:'Century Gothic';-inkscape-font-specification:'Century Gothic, Normal';fill:#212737;fill-opacity:1;stroke-width:2.1984">
        <path
           style="fill:#212737;fill-opacity:1;stroke-width:2.1984"
           sodipodi:type="inkscape:offset"
           inkscape:radius="4.1767879"
           inkscape:original="M 71.28125 99.349609 C 64.123457 99.451899 56.908605 101.49447 51.074219 105.7168 C 44.677437 110.27823 39.707965 117.00471 37.849609 124.69336 C 36.378396 130.72262 36.491807 137.11551 37.984375 143.12891 C 40.578341 153.42941 48.352571 162.3814 58.398438 165.98633 C 64.88193 168.34179 71.968665 168.76082 78.767578 167.81445 C 87.034071 166.62511 94.902206 162.45453 100.24414 155.99219 C 101.12193 155.173 101.54599 153.94587 101.30859 152.76172 C 100.90341 150.61819 98.791053 149.26077 96.794922 148.80273 C 95.560255 148.512 94.254526 149.07269 93.574219 150.13281 C 89.603196 154.71906 84.176275 158.13465 78.164062 159.21094 C 76.14264 159.60654 73.93374 159.74379 71.96875 159.70508 C 66.952827 159.64778 61.746577 158.29075 57.619141 155.58008 C 52.02425 151.97616 47.804936 146.14417 46.591797 139.55469 C 45.274762 132.63046 46.374257 125.06309 50.490234 119.23242 C 54.337818 113.6728 60.538499 109.90179 67.144531 108.64062 C 74.338004 107.32618 82.112147 108.73534 88.111328 113.00977 C 90.407627 114.59922 92.344213 116.64279 94.074219 118.81836 C 95.520145 120.24037 97.872879 120.02206 99.460938 118.96094 C 100.79925 117.82805 101.84852 115.95087 101.37305 114.14844 C 100.92003 112.84957 99.848321 111.88776 99.027344 110.81445 C 93.179677 104.07163 84.488118 100.10735 75.640625 99.476562 C 74.190585 99.362771 72.73559 99.321927 71.28125 99.349609 z "
           xlink:href="#path852"
           id="path861"
           inkscape:href="#path852"
           d="m 71.214844,95.173828 c -7.906477,0.114031 -15.942525,2.354063 -22.580078,7.154292 -7.137099,5.09414 -12.719679,12.58887 -14.845704,21.38282 -1.46e-4,6e-4 1.47e-4,0.001 0,0.002 -1.641619,6.73492 -1.505963,13.78794 0.140626,20.42188 a 4.1772055,4.1772055 0 0 0 0.0039,0.0137 c 2.935284,11.65586 11.576776,21.64414 23.039062,25.76367 0.0019,7.1e-4 0.0039,0.001 0.0059,0.002 7.250496,2.63283 15.009017,3.06106 22.365234,2.03711 a 4.1772055,4.1772055 0 0 0 0.01953,-0.002 c 9.108997,-1.31056 17.722769,-5.84343 23.773439,-12.97266 1.86092,-1.77366 2.78637,-4.37458 2.26953,-7.00586 -0.84342,-4.4149 -4.5523,-6.51896 -7.669922,-7.23632 -3.035004,-0.70764 -6.0498,0.60577 -7.677734,3.14257 l 0.357422,-0.47851 c -3.4101,3.93842 -8.055717,6.81816 -12.988282,7.70117 a 4.1772055,4.1772055 0 0 0 -0.06641,0.0117 c -1.637281,0.32042 -3.601564,0.45163 -5.310547,0.41797 a 4.1772055,4.1772055 0 0 0 -0.03516,0 c -4.295743,-0.0491 -8.788514,-1.26235 -12.103516,-3.43946 a 4.1772055,4.1772055 0 0 0 -0.03125,-0.0215 c -4.67402,-3.01075 -8.201285,-7.94448 -9.18164,-13.26953 a 4.1772055,4.1772055 0 0 0 -0.0039,-0.0254 c -1.132918,-5.95625 -0.129121,-12.40684 3.207032,-17.13282 a 4.1772055,4.1772055 0 0 0 0.02148,-0.0312 c 3.152575,-4.55536 8.4216,-7.79437 13.988281,-8.86133 6.145976,-1.11839 12.816377,0.13075 17.775391,3.66406 a 4.1772055,4.1772055 0 0 0 0.04687,0.0312 c 1.822339,1.26138 3.492347,2.99024 5.070313,4.97461 a 4.1772055,4.1772055 0 0 0 0.341796,0.37891 c 3.213268,3.16011 7.682252,2.60954 10.634766,0.63671 a 4.1772055,4.1772055 0 0 0 0.37891,-0.28515 c 2.25322,-1.90738 4.29642,-5.10505 3.25195,-9.06446 a 4.1772055,4.1772055 0 0 0 -0.0957,-0.31054 c -0.91645,-2.62757 -2.48386,-3.85962 -2.97071,-4.4961 a 4.1772055,4.1772055 0 0 0 -0.16211,-0.19922 C 95.52646,100.40193 85.834686,96.019562 75.945312,95.3125 74.369397,95.189549 72.792605,95.144515 71.220703,95.173828 Z" />
        <path
           id="path852"
           style="fill:#212737;fill-opacity:1;stroke-width:2.1984"
           d="m 71.28125,99.349609 c -7.157793,0.10229 -14.372671,2.145051 -20.207057,6.367381 -6.396782,4.56143 -11.367097,11.28681 -13.225453,18.97546 -1.471213,6.02926 -1.356933,12.42306 0.135635,18.43646 2.593966,10.3005 10.36787,19.25317 20.413736,22.8581 6.483493,2.35546 13.570554,2.77381 20.369467,1.82744 8.266493,-1.18934 16.134627,-5.35992 21.476562,-11.82226 0.87779,-0.81919 1.30185,-2.04632 1.06445,-3.23047 -0.40518,-2.14353 -2.516615,-3.50147 -4.512746,-3.95951 -1.234667,-0.29073 -2.542188,0.26973 -3.222495,1.32985 -3.971023,4.58625 -9.39772,8.00212 -15.409933,9.07841 -2.021422,0.3956 -4.229676,0.53332 -6.194666,0.49461 -5.015923,-0.0573 -10.222173,-1.41433 -14.349609,-4.125 -5.594891,-3.60392 -9.814058,-9.43566 -11.027197,-16.02514 -1.317035,-6.92423 -0.217523,-14.49152 3.898454,-20.32219 3.847584,-5.55962 10.048935,-9.33069 16.654967,-10.59186 7.193473,-1.31444 14.966497,0.0937 20.965678,4.36813 2.296299,1.58945 4.23317,3.63377 5.963176,5.80934 1.445926,1.42201 3.798661,1.2037 5.386719,0.14258 1.338312,-1.13289 2.387582,-3.01007 1.912112,-4.8125 -0.45302,-1.29887 -1.524729,-2.26068 -2.345706,-3.33399 C 93.179677,104.07163 84.488273,100.10716 75.64078,99.476368 74.19074,99.362576 72.73559,99.321927 71.28125,99.349609 Z" />
      </g>
    </g>
  </g>
</svg>
